<svg version="1.0" xmlns="http://www.w3.org/2000/svg" viewBox="0 0 500 500">
  <style>
    path {
      fill: black;
    }
    @media (prefers-color-scheme: dark) {
      path {
        fill: white;
      }
    }
  </style>
  <path d="M255 93.6c-13.1 2.2-21.9 7.1-33.5 18.8-16.4 16.5-23.5 29.5-43.9 80.8l-13.9 34.7-7.1.6c-11.8 1.1-28.7-2.4-36-7.5-11.2-7.7-18.1-23.9-15.6-36.8 1.4-7.7 6.6-19.5 11.5-26 6.9-9.5 18.7-16.9 31.2-19.7 8.3-1.9 11.3-3.1 11.3-4.6 0-1.8-10.3-.5-19.4 2.6-16.2 5.3-31.6 14.8-38.6 23.6-6.2 7.8-8.4 14.7-8.5 25.9 0 8.7.3 10.1 3.2 16.3 9 19 27.7 29.5 57.5 32.2l6.7.7-3.6 7.1c-5.7 11.4-17.3 32.7-21.1 38.5-3.2 5.1-3.6 5.4-6.5 4.8-1.8-.4-9.7-.9-17.7-1.2-21.4-.9-44.4 2.9-58.9 9.6-13.2 6.2-21.3 13.6-25 22.7-1.7 4.2-1 13.6 1.3 18.5 2.1 4.3 10.1 10.7 16.6 13.3 7.3 2.8 20.2 3.1 28.5.6 8.6-2.5 20.4-8.5 28.2-14.2 7.5-5.5 22.7-20.9 27.8-28.2 2.2-3.1 4.7-5.7 5.6-5.7 2.7 0 25.4 4.8 35.7 7.6 33.1 9 60.6 25.4 68.9 41.1 7 13.2 8.2 27.9 3.4 41.3-1.6 4.4-2.6 8.2-2.1 8.5 1.3.8 6.2-1.3 8.8-3.8 9.4-8.7 8.2-29.2-2.8-47.8-5.7-9.6-14.4-17.9-28.3-27-19-12.5-39.3-21.5-64.3-28.9l-12.2-3.5 4-6.5c2.2-3.6 8.7-16.1 14.6-27.7 7.4-14.7 11.2-21.3 12.3-21.3 2.8 0 18.9-4.9 26.6-8.1 4-1.7 11-5.3 15.5-8.1 40.7-24.7 66.6-62.9 67.2-99.3.1-8.9 0-9.5-2.9-13.6-4.8-6.8-16.3-11.6-24.5-10.3zm13.8 16.4c1.9 1.8 2.2 3.1 2.2 10.8 0 15.7-6.5 33.9-18.2 50.9-11.6 17-33.3 36.1-51.6 45.2-6 3-22.8 9.1-25.1 9.1-1.2 0 13.7-30.2 25.9-52.5 22.9-41.7 44.4-65.5 59.5-65.5 3.8 0 5.7.5 7.3 2zm-151 187.9c2.3.5 4.5 1.1 4.8 1.4.7.7-9.5 13.7-15.6 19.7-20.1 20.2-49.2 29.4-66 20.9-11.8-5.9-12.7-16.7-2.1-26 8.2-7.2 22.2-12.9 40.6-16.4 8.4-1.5 29.6-1.3 38.3.4z"/>
  <path d="M392.4 104c-10.9 1.1-24 4.4-33 8.1-16.1 6.7-31.2 19.6-37 31.6-2.4 5-2.8 7-2.8 14.3.1 11.2 2.3 16.1 12 25.6 6.4 6.4 9 8.1 22.7 14.8 8.5 4.2 15.8 7.6 16.2 7.6.8 0 3.5 1.2 19.5 8.7 14.8 6.9 21.4 11.3 27.2 18 11.3 13.2 13.3 27.3 6.2 45-9.6 24.2-33.1 43.1-65.9 53.2-15.9 4.8-25.3 6.2-42 6.2-45.6-.1-74.2-15.9-82-45.2-2.3-8.6-1.9-24.7.9-35.9 4.4-17.9 12.2-31.4 25.5-44.5 4.5-4.4 8.1-8.3 8.1-8.8 0-1.7-5.6.1-12 3.9-15.4 9-32.2 32.8-37.4 53-2 7.8-2.1 22.2-.1 29.9 5.1 20 22.2 37.4 45.8 46.6 15.7 6 23.9 7.3 48.7 7.3 19.2 0 24.1-.3 33.6-2.2 27-5.4 47.9-15.2 68.9-32.4 12.5-10.4 26.2-28 30.5-39.4 6.1-16.4 2-33.3-11.1-46.2-8.7-8.5-18.7-14.1-62.8-34.8-22.5-10.6-33.1-21.7-33.1-34.9 0-3.7.8-7.5 1.9-10 8.4-18 37.8-31.9 70.1-33.2 12.7-.5 13.9-.4 21.5 2.2 9.5 3.2 16.4 8.2 20.8 15 2.8 4.3 3.2 5.8 3.2 11.6 0 10.6-5.1 16.2-16.8 18.4-4.3.8-6.6 3-4.9 4.7 1.7 1.7 12.3-1.8 19.1-6.2 6.5-4.2 10.7-10 12.3-16.9 2.2-9.8-4.7-22.3-15.9-28.3-8.8-4.8-18.3-6.8-34.8-7.3-8.2-.2-18.6 0-23.1.5z"/>
</svg>
